<?xml version="1.0" encoding="UTF-8"?>
<svg width="24px" height="26px" viewBox="0 0 24 26" version="1.1" xmlns="http://www.w3.org/2000/svg" xmlns:xlink="http://www.w3.org/1999/xlink">
    <title>Path</title>
    <g id="Plugin-Main-Design" stroke="none" stroke-width="1" fill="none" fill-rule="evenodd">
        <g id="Add-New-Post" transform="translate(-363.000000, -38.000000)" fill="#FFFFFF" fill-rule="nonzero">
            <g id="refresh" transform="translate(362.595655, 38.092483)">
                <path d="M24.0479912,11.5408083 C23.9681593,11.0404211 23.4977695,10.6995362 22.9973822,10.7793681 C22.4969949,10.8592 22.1561101,11.3295899 22.235942,11.8299771 C22.2368021,11.8354605 22.237716,11.8408902 22.2386837,11.8463198 C23.1730123,17.3464405 19.4717162,22.5625533 13.9715955,23.496882 C8.47147474,24.4312106 3.25536197,20.7299144 2.32103333,15.2297937 C1.38670468,9.72967301 5.0880546,4.51356024 10.5881216,3.5792316 C13.970574,3.00465711 17.4134515,4.18616891 19.7302962,6.71665128 L15.6658591,8.07083647 C15.18504,8.23082278 14.9250085,8.7502407 15.084941,9.23105976 C15.2450886,9.71225514 15.7645065,9.97228666 16.2453256,9.81235411 L21.7506072,7.97729609 C22.1254138,7.85246806 22.3782416,7.50169163 22.3781879,7.10661791 L22.3781879,1.60171266 C22.3781879,1.09498183 21.9674166,0.684210526 21.4606858,0.684210526 C20.9539549,0.684210526 20.5431836,1.09498183 20.5431836,1.60171266 L20.5431836,4.9532538 C15.8182116,0.459229779 8.34471139,0.64647182 3.85068737,5.37144382 C-0.643336649,10.0964158 -0.456148367,17.569916 4.26887739,22.0639938 C8.99390315,26.5580716 16.4673496,26.3708296 20.9614274,21.6458038 C23.5240576,18.9514107 24.6677231,15.2072688 24.0479912,11.5408083 Z" id="Path"></path>
            </g>
        </g>
    </g>
</svg>